<svg width="137" height="51" viewBox="0 0 137 51" fill="none" xmlns="http://www.w3.org/2000/svg">
<path d="M47.1016 36H48.7166V31L52.4966 31V29.2765H48.7166V27.347C48.7166 25.868 49.5156 25.205 50.7226 25.205C52.2586 25.205 52.4966 26 52.4966 26H53.9966C53.9966 26 53.6743 23.709 50.7226 23.709C48.4966 23.709 47.1016 24.916 47.1016 27.347V36ZM55.4146 36H57.0296V23.93H55.4146V36Z" fill="black"/>
<path d="M63.6565 36.221C66.1385 36.221 67.8045 34.776 67.8045 31.988V27.602H66.1895V31.988C66.1895 33.807 65.1865 34.725 63.6565 34.725C62.1265 34.725 61.1235 33.807 61.1235 31.988V27.602H59.5085V31.988C59.5085 34.793 61.1745 36.221 63.6565 36.221Z" fill="black"/>
<path d="M71.0844 26.276C71.7304 26.276 72.2064 25.783 72.2064 25.137C72.2064 24.491 71.7304 24.015 71.0844 24.015C70.4384 24.015 69.9624 24.491 69.9624 25.137C69.9624 25.783 70.4384 26.276 71.0844 26.276ZM70.2854 36H71.9004V27.602H70.2854V36Z" fill="black"/>
<path d="M78.5566 36.221C81.1576 36.221 83.0276 34.47 83.0276 31.733V23.93H81.4126V29.081C80.8006 27.993 79.6446 27.381 78.2846 27.381C76.0916 27.381 74.0176 28.962 74.0176 31.75C74.0176 34.385 75.8876 36.221 78.5566 36.221ZM78.5396 34.725C76.8056 34.725 75.6496 33.501 75.6496 31.801C75.6496 30.101 76.8056 28.877 78.5396 28.877C80.2566 28.877 81.4126 30.101 81.4126 31.801C81.4126 33.501 80.2566 34.725 78.5396 34.725Z" fill="black"/>
<path d="M89.3924 36.221C91.3474 36.221 92.8774 35.218 93.5234 33.654H91.7384C91.2454 34.385 90.4804 34.725 89.3924 34.725C87.9304 34.725 86.8084 33.892 86.5704 32.396H93.8804V31.801C93.8804 29.251 92.0444 27.381 89.3924 27.381C86.7404 27.381 84.8704 29.251 84.8704 31.801C84.8704 34.351 86.7404 36.221 89.3924 36.221ZM86.6214 30.951C86.9444 29.625 87.9984 28.877 89.3924 28.877C90.7524 28.877 91.8574 29.608 92.1804 30.951H86.6214Z" fill="black"/>
<path d="M98.8935 36.221C101.002 36.221 102.379 35.116 102.379 33.416C102.379 31.495 100.594 31.223 99.1315 31.036C98.0945 30.9 97.2105 30.815 97.2105 30.016C97.2105 29.353 97.8225 28.843 98.8935 28.843C99.9135 28.843 100.509 29.319 100.56 29.965H102.158C102.124 28.52 100.883 27.381 98.8765 27.381C96.8705 27.381 95.5785 28.503 95.5785 30.152C95.5785 32.073 97.3465 32.345 98.8085 32.532C99.8625 32.668 100.747 32.77 100.747 33.569C100.747 34.232 100.118 34.759 98.8935 34.759C97.7205 34.759 97.0745 34.266 97.0405 33.569H95.4085C95.4595 35.099 96.7855 36.221 98.8935 36.221Z" fill="black"/>
<path d="M105.348 26.276C105.994 26.276 106.47 25.783 106.47 25.137C106.47 24.491 105.994 24.015 105.348 24.015C104.702 24.015 104.226 24.491 104.226 25.137C104.226 25.783 104.702 26.276 105.348 26.276ZM104.549 36H106.164V27.602H104.549V36Z" fill="black"/>
<path d="M112.837 39.808C115.319 39.808 117.291 38.55 117.291 35.32V31.869C117.291 29.166 115.455 27.381 112.803 27.381C110.151 27.381 108.281 29.251 108.281 31.801C108.281 34.657 110.355 36.153 112.531 36.153C113.942 36.153 115.115 35.507 115.693 34.419V35.388C115.693 37.581 114.554 38.397 112.837 38.397C111.613 38.397 110.627 37.972 110.236 37.003H108.587C109.165 38.941 110.78 39.808 112.837 39.808ZM112.803 34.64C111.069 34.64 109.913 33.501 109.913 31.801C109.913 30.101 111.069 28.877 112.803 28.877C114.537 28.877 115.693 30.101 115.693 31.801C115.693 33.501 114.537 34.64 112.803 34.64Z" fill="black"/>
<path d="M119.474 36H121.089V31.631C121.089 29.812 122.092 28.877 123.622 28.877C125.152 28.877 126.155 29.812 126.155 31.631V36H127.77V31.631C127.77 28.809 126.104 27.381 123.622 27.381C121.14 27.381 119.474 28.826 119.474 31.631V36Z" fill="black"/>
<path d="M133.124 36.221C135.232 36.221 136.609 35.116 136.609 33.416C136.609 31.495 134.824 31.223 133.362 31.036C132.325 30.9 131.441 30.815 131.441 30.016C131.441 29.353 132.053 28.843 133.124 28.843C134.144 28.843 134.739 29.319 134.79 29.965H136.388C136.354 28.52 135.113 27.381 133.107 27.381C131.101 27.381 129.809 28.503 129.809 30.152C129.809 32.073 131.577 32.345 133.039 32.532C134.093 32.668 134.977 32.77 134.977 33.569C134.977 34.232 134.348 34.759 133.124 34.759C131.951 34.759 131.305 34.266 131.271 33.569H129.639C129.69 35.099 131.016 36.221 133.124 36.221Z" fill="black"/>
<path d="M60.1357 11.6789C59.4584 12.3623 58.7059 12.8939 57.8029 13.1976C52.159 15.5515 44.4833 15.3996 39.5919 24.5874C37.1086 29.2952 37.2591 33.0159 38.9147 36.8125C39.4414 38.1033 40.194 38.9386 40.796 39.4701C42.6773 41.2166 43.7308 40.4572 45.0101 41.9C45.9883 42.8871 45.9883 44.4816 45.0101 45.4688C44.0318 46.4559 42.4515 46.5318 41.4732 45.4688C38.7642 42.5074 36.8829 41.4444 34.8511 43.7983C34.6253 44.102 34.3243 44.3298 34.0985 44.6335C26.4229 52.4545 13.7805 52.5305 5.87909 44.6335C-1.94711 36.8125 -1.94711 24.0559 5.80384 16.1589C12.2755 9.55284 22.2087 8.41385 29.8092 12.8179C38.8394 17.6776 44.1823 14.7162 47.4181 7.95826C48.8479 4.92097 49.6757 3.17453 51.858 1.27623C54.0403 -0.622078 57.4266 -0.470214 60.0604 2.18741C62.6943 4.76911 62.6943 9.02131 60.1357 11.6789Z" fill="#3F4AFE"/>
<path d="M28.654 24H26.6974V28.48C26.0202 28.0244 25.1924 27.7966 24.2894 27.7966C21.8813 27.7966 20 29.7708 20 32.1247C20 34.5546 21.9566 36.4529 24.2894 36.4529C26.6974 36.4529 28.5787 34.4786 28.5787 32.1247V24H28.654ZM24.2894 34.5546C23.0101 34.5546 21.8813 33.4915 21.8813 32.1247C21.8813 30.8339 22.9348 29.6949 24.2894 29.6949C25.5686 29.6949 26.6974 30.758 26.6974 32.1247C26.6974 33.4156 25.6439 34.5546 24.2894 34.5546Z" fill="white"/>
<path d="M12.95 36.291V36.341H13H14.615H14.665V36.291V31.341H18.395H18.445V31.291V29.5719V29.5219H18.395H14.665V27.638C14.665 26.9087 14.8829 26.3874 15.2324 26.0483C15.5823 25.7088 16.0701 25.546 16.621 25.546C17.2514 25.546 17.685 25.7411 17.9604 25.9344C18.0984 26.0312 18.197 26.1279 18.2608 26.1999C18.2928 26.236 18.316 26.2658 18.3311 26.2864C18.3386 26.2967 18.3441 26.3047 18.3477 26.3099L18.3515 26.3158L18.3524 26.3171L18.3525 26.3173L18.3525 26.3173L18.3525 26.3173L18.3525 26.3173L18.3671 26.341H18.395H19.895H19.9501L19.9448 26.2862L19.895 26.291L19.9448 26.2861L19.9448 26.2859L19.9447 26.2855L19.9446 26.284L19.9439 26.2786L19.9413 26.2583C19.9388 26.2407 19.9348 26.2153 19.9287 26.1831C19.9163 26.1188 19.8953 26.0273 19.8604 25.9178C19.7906 25.6989 19.6652 25.4071 19.4426 25.1152C18.9956 24.5292 18.1619 23.95 16.621 23.95C15.5325 23.95 14.6135 24.2544 13.9664 24.8712C13.3188 25.4884 12.95 26.4123 12.95 27.638V36.291Z" fill="white" stroke="white" stroke-width="0.1"/>
</svg>
